<?xml version="1.0" encoding="utf-8"?>
<!-- Generator: Adobe Illustrator 15.0.0, SVG Export Plug-In . SVG Version: 6.00 Build 0)  -->
<!DOCTYPE svg PUBLIC "-//W3C//DTD SVG 1.1//EN" "http://www.w3.org/Graphics/SVG/1.1/DTD/svg11.dtd">
<svg version="1.1" id="图层_1" xmlns="http://www.w3.org/2000/svg" xmlns:xlink="http://www.w3.org/1999/xlink" x="0px" y="0px"
	 width="21.293px" height="26.395px" viewBox="0 0 21.293 26.395" enable-background="new 0 0 21.293 26.395" xml:space="preserve">
<polygon fill-rule="evenodd" clip-rule="evenodd" fill="none" stroke="#000000" stroke-width="0.75" points="10.027,22.985 
	11.499,22.985 11.7,24.254 9.76,24.254 "/>
<rect x="10.438" y="24.254" fill-rule="evenodd" clip-rule="evenodd" fill="none" stroke="#000000" stroke-width="0.75" width="0.502" height="0.703"/>
<path fill="none" stroke="#000000" stroke-width="0.5" d="M13.345,15.115c0,2.773-0.083,5.256-0.32,7.234
	c-0.352,2.947-1.68,3.308-2.295,3.306c-0.552,0.002-1.973-0.376-2.314-3.351c-0.226-1.971-0.301-4.438-0.301-7.189
	c0-2.008,0.149-6.892,0.38-8.554c0.563-4.05,1.942-5.689,2.19-5.781c0.449,0.195,1.757,1.708,2.296,5.73
	C13.204,8.185,13.345,13.087,13.345,15.115z"/>
<line fill="none" stroke="#000000" stroke-width="0.25" x1="8.343" y1="8.821" x2="13.063" y2="8.821"/>
<path fill="none" stroke="#000000" stroke-width="0.5" d="M12.271,18.695c0,0.852-0.69,1.542-1.542,1.542l0,0
	c-0.851,0-1.542-0.69-1.542-1.542v-6.458c0-0.851,0.69-1.542,1.542-1.542l0,0c0.852,0,1.542,0.69,1.542,1.542V18.695z"/>
<path fill="none" stroke="#000000" stroke-width="0.5" d="M12.021,18.091c0,0.518-0.42,0.938-0.938,0.938l0,0
	c-0.518,0-0.938-0.42-0.938-0.938v-3.167c0-0.518,0.42-0.938,0.938-0.938l0,0c0.518,0,0.938,0.42,0.938,0.938V18.091z"/>
<circle fill="none" stroke="#000000" stroke-width="0.5" cx="10.73" cy="6.947" r="1.308"/>
<line fill="none" stroke="#000000" stroke-width="0.5" x1="10.729" y1="6.947" x2="10.729" y2="2.781"/>
</svg>
